<?xml version="1.0" encoding="UTF-8" standalone="no"?>
<!DOCTYPE svg PUBLIC "-//W3C//DTD SVG 1.1//EN"
 "http://www.w3.org/Graphics/SVG/1.1/DTD/svg11.dtd">
<!-- Generated by graphviz version 2.38.0 (20140413.2041)
 -->
<!-- Title: G Pages: 1 -->
<svg width="831pt" height="179pt"
 viewBox="0.00 0.00 830.94 179.00" xmlns="http://www.w3.org/2000/svg" xmlns:xlink="http://www.w3.org/1999/xlink">
<g id="graph0" class="graph" transform="scale(1 1) rotate(0) translate(4 175)">
<title>G</title>
<polygon fill="white" stroke="none" points="-4,4 -4,-175 826.937,-175 826.937,4 -4,4"/>
<!-- detectCircularDependencies -->
<g id="node1" class="node"><title>detectCircularDependencies</title>
<ellipse fill="none" stroke="black" cx="112.44" cy="-45" rx="112.38" ry="18"/>
<text text-anchor="middle" x="112.44" y="-41.3" font-family="Times New Roman,serif" font-size="14.00">detectCircularDependencies</text>
</g>
<!-- ./command -->
<g id="node2" class="node"><title>./command</title>
<ellipse fill="none" stroke="black" cx="334.324" cy="-72" rx="51.9908" ry="18"/>
<text text-anchor="middle" x="334.324" y="-68.3" font-family="Times New Roman,serif" font-size="14.00">./command</text>
</g>
<!-- detectCircularDependencies&#45;&gt;./command -->
<g id="edge1" class="edge"><title>detectCircularDependencies&#45;&gt;./command</title>
<path fill="none" stroke="black" d="M202.241,-55.9041C226.738,-58.9121 252.689,-62.0988 274.981,-64.836"/>
<polygon fill="black" stroke="black" points="274.595,-68.3148 284.947,-66.0597 275.448,-61.367 274.595,-68.3148"/>
</g>
<!-- ./DependencyDB -->
<g id="node3" class="node"><title>./DependencyDB</title>
<ellipse fill="none" stroke="black" cx="334.324" cy="-18" rx="73.387" ry="18"/>
<text text-anchor="middle" x="334.324" y="-14.3" font-family="Times New Roman,serif" font-size="14.00">./DependencyDB</text>
</g>
<!-- detectCircularDependencies&#45;&gt;./DependencyDB -->
<g id="edge2" class="edge"><title>detectCircularDependencies&#45;&gt;./DependencyDB</title>
<path fill="none" stroke="black" d="M202.241,-34.0959C220.76,-31.8219 240.111,-29.4458 258.083,-27.239"/>
<polygon fill="black" stroke="black" points="258.7,-30.6896 268.198,-25.9969 257.846,-23.7418 258.7,-30.6896"/>
</g>
<!-- ./ParseAMDFile -->
<g id="node4" class="node"><title>./ParseAMDFile</title>
<ellipse fill="none" stroke="black" cx="513.311" cy="-99" rx="69.5877" ry="18"/>
<text text-anchor="middle" x="513.311" y="-95.3" font-family="Times New Roman,serif" font-size="14.00">./ParseAMDFile</text>
</g>
<!-- ./command&#45;&gt;./ParseAMDFile -->
<g id="edge3" class="edge"><title>./command&#45;&gt;./ParseAMDFile</title>
<path fill="none" stroke="black" d="M382.288,-79.1646C400.861,-81.998 422.59,-85.3128 442.909,-88.4126"/>
<polygon fill="black" stroke="black" points="442.652,-91.9137 453.065,-89.9619 443.707,-84.9937 442.652,-91.9137"/>
</g>
<!-- ./Visitor -->
<g id="node5" class="node"><title>./Visitor</title>
<ellipse fill="none" stroke="black" cx="513.311" cy="-45" rx="40.0939" ry="18"/>
<text text-anchor="middle" x="513.311" y="-41.3" font-family="Times New Roman,serif" font-size="14.00">./Visitor</text>
</g>
<!-- ./command&#45;&gt;./Visitor -->
<g id="edge4" class="edge"><title>./command&#45;&gt;./Visitor</title>
<path fill="none" stroke="black" d="M382.288,-64.8354C407.76,-60.9495 439.17,-56.1579 464.736,-52.2577"/>
<polygon fill="black" stroke="black" points="465.582,-55.6693 474.939,-50.7011 464.526,-48.7493 465.582,-55.6693"/>
</g>
<!-- fs -->
<g id="node6" class="node"><title>fs</title>
<ellipse fill="none" stroke="black" cx="720.896" cy="-153" rx="27" ry="18"/>
<text text-anchor="middle" x="720.896" y="-149.3" font-family="Times New Roman,serif" font-size="14.00">fs</text>
</g>
<!-- ./ParseAMDFile&#45;&gt;fs -->
<g id="edge5" class="edge"><title>./ParseAMDFile&#45;&gt;fs</title>
<path fill="none" stroke="black" d="M562.771,-111.729C600.532,-121.647 652.021,-135.172 685.605,-143.993"/>
<polygon fill="black" stroke="black" points="684.856,-147.415 695.417,-146.57 686.635,-140.645 684.856,-147.415"/>
</g>
<!-- path -->
<g id="node7" class="node"><title>path</title>
<ellipse fill="none" stroke="black" cx="720.896" cy="-99" rx="27" ry="18"/>
<text text-anchor="middle" x="720.896" y="-95.3" font-family="Times New Roman,serif" font-size="14.00">path</text>
</g>
<!-- ./ParseAMDFile&#45;&gt;path -->
<g id="edge6" class="edge"><title>./ParseAMDFile&#45;&gt;path</title>
<path fill="none" stroke="black" d="M583.053,-99C616.693,-99 655.817,-99 683.594,-99"/>
<polygon fill="black" stroke="black" points="683.649,-102.5 693.649,-99 683.649,-95.5001 683.649,-102.5"/>
</g>
<!-- ./traverseWithDepthLimit -->
<g id="node8" class="node"><title>./traverseWithDepthLimit</title>
<ellipse fill="none" stroke="black" cx="720.896" cy="-45" rx="102.082" ry="18"/>
<text text-anchor="middle" x="720.896" y="-41.3" font-family="Times New Roman,serif" font-size="14.00">./traverseWithDepthLimit</text>
</g>
<!-- ./Visitor&#45;&gt;./traverseWithDepthLimit -->
<g id="edge7" class="edge"><title>./Visitor&#45;&gt;./traverseWithDepthLimit</title>
<path fill="none" stroke="black" d="M553.95,-45C569.748,-45 588.796,-45 608.27,-45"/>
<polygon fill="black" stroke="black" points="608.477,-48.5001 618.477,-45 608.477,-41.5001 608.477,-48.5001"/>
</g>
</g>
</svg>
