<?xml version="1.0" encoding="UTF-8" standalone="no"?>
<!DOCTYPE svg PUBLIC "-//W3C//DTD SVG 1.1//EN"
 "http://www.w3.org/Graphics/SVG/1.1/DTD/svg11.dtd">
<!-- Generated by graphviz version 2.38.0 (20140413.2041)
 -->
<!-- Title: G Pages: 1 -->
<svg width="478pt" height="179pt"
 viewBox="0.00 0.00 478.47 179.00" xmlns="http://www.w3.org/2000/svg" xmlns:xlink="http://www.w3.org/1999/xlink">
<g id="graph0" class="graph" transform="scale(1 1) rotate(0) translate(4 175)">
<title>G</title>
<polygon fill="white" stroke="none" points="-4,4 -4,-175 474.469,-175 474.469,4 -4,4"/>
<!-- display -->
<g id="node1" class="node"><title>display</title>
<ellipse fill="none" stroke="black" cx="36.3968" cy="-72" rx="36.2938" ry="18"/>
<text text-anchor="middle" x="36.3968" y="-68.3" font-family="Times New Roman,serif" font-size="14.00">display</text>
</g>
<!-- ParseFile -->
<g id="node2" class="node"><title>ParseFile</title>
<ellipse fill="none" stroke="black" cx="244.631" cy="-126" rx="44.393" ry="18"/>
<text text-anchor="middle" x="244.631" y="-122.3" font-family="Times New Roman,serif" font-size="14.00">ParseFile</text>
</g>
<!-- display&#45;&gt;ParseFile -->
<g id="edge1" class="edge"><title>display&#45;&gt;ParseFile</title>
<path fill="none" stroke="black" d="M64.5049,-83.4517C77.6969,-88.7139 93.8908,-94.7213 108.794,-99 136.222,-106.875 167.434,-113.282 192.915,-117.876"/>
<polygon fill="black" stroke="black" points="192.641,-121.381 203.096,-119.67 193.856,-114.488 192.641,-121.381"/>
</g>
<!-- GraphDescriptionOutput -->
<g id="node3" class="node"><title>GraphDescriptionOutput</title>
<ellipse fill="none" stroke="black" cx="244.631" cy="-72" rx="100.983" ry="18"/>
<text text-anchor="middle" x="244.631" y="-68.3" font-family="Times New Roman,serif" font-size="14.00">GraphDescriptionOutput</text>
</g>
<!-- display&#45;&gt;GraphDescriptionOutput -->
<g id="edge2" class="edge"><title>display&#45;&gt;GraphDescriptionOutput</title>
<path fill="none" stroke="black" d="M72.8498,-72C89.9278,-72 111.439,-72 133.383,-72"/>
<polygon fill="black" stroke="black" points="133.482,-75.5001 143.482,-72 133.482,-68.5001 133.482,-75.5001"/>
</g>
<!-- traverseByFollowingDependencies -->
<g id="node4" class="node"><title>traverseByFollowingDependencies</title>
<ellipse fill="none" stroke="black" cx="244.631" cy="-18" rx="135.676" ry="18"/>
<text text-anchor="middle" x="244.631" y="-14.3" font-family="Times New Roman,serif" font-size="14.00">traverseByFollowingDependencies</text>
</g>
<!-- display&#45;&gt;traverseByFollowingDependencies -->
<g id="edge3" class="edge"><title>display&#45;&gt;traverseByFollowingDependencies</title>
<path fill="none" stroke="black" d="M64.5049,-60.5483C77.6969,-55.2861 93.8908,-49.2787 108.794,-45 122.404,-41.0924 136.946,-37.5461 151.257,-34.4035"/>
<polygon fill="black" stroke="black" points="152.068,-37.8092 161.113,-32.2928 150.602,-30.9644 152.068,-37.8092"/>
</g>
<!-- fs -->
<g id="node5" class="node"><title>fs</title>
<ellipse fill="none" stroke="black" cx="443.469" cy="-153" rx="27" ry="18"/>
<text text-anchor="middle" x="443.469" y="-149.3" font-family="Times New Roman,serif" font-size="14.00">fs</text>
</g>
<!-- ParseFile&#45;&gt;fs -->
<g id="edge4" class="edge"><title>ParseFile&#45;&gt;fs</title>
<path fill="none" stroke="black" d="M286.895,-131.66C322.295,-136.516 372.792,-143.442 406.552,-148.073"/>
<polygon fill="black" stroke="black" points="406.502,-151.599 416.885,-149.491 407.453,-144.664 406.502,-151.599"/>
</g>
<!-- path -->
<g id="node6" class="node"><title>path</title>
<ellipse fill="none" stroke="black" cx="443.469" cy="-99" rx="27" ry="18"/>
<text text-anchor="middle" x="443.469" y="-95.3" font-family="Times New Roman,serif" font-size="14.00">path</text>
</g>
<!-- ParseFile&#45;&gt;path -->
<g id="edge5" class="edge"><title>ParseFile&#45;&gt;path</title>
<path fill="none" stroke="black" d="M286.895,-120.34C322.295,-115.484 372.792,-108.558 406.552,-103.927"/>
<polygon fill="black" stroke="black" points="407.453,-107.336 416.885,-102.509 406.502,-100.401 407.453,-107.336"/>
</g>
</g>
</svg>
