<?xml version="1.0" encoding="UTF-8" standalone="no"?>
<!DOCTYPE svg PUBLIC "-//W3C//DTD SVG 1.1//EN"
 "http://www.w3.org/Graphics/SVG/1.1/DTD/svg11.dtd">
<!-- Generated by graphviz version 2.38.0 (20140413.2041)
 -->
<!-- Title: G Pages: 1 -->
<svg width="692pt" height="179pt"
 viewBox="0.00 0.00 691.85 179.00" xmlns="http://www.w3.org/2000/svg" xmlns:xlink="http://www.w3.org/1999/xlink">
<g id="graph0" class="graph" transform="scale(1 1) rotate(0) translate(4 175)">
<title>G</title>
<polygon fill="white" stroke="none" points="-4,4 -4,-175 687.849,-175 687.849,4 -4,4"/>
<!-- display -->
<g id="node1" class="node"><title>display</title>
<ellipse fill="none" stroke="black" cx="36.3968" cy="-45" rx="36.2938" ry="18"/>
<text text-anchor="middle" x="36.3968" y="-41.3" font-family="Times New Roman,serif" font-size="14.00">display</text>
</g>
<!-- ./command -->
<g id="node2" class="node"><title>./command</title>
<ellipse fill="none" stroke="black" cx="188.736" cy="-72" rx="51.9908" ry="18"/>
<text text-anchor="middle" x="188.736" y="-68.3" font-family="Times New Roman,serif" font-size="14.00">./command</text>
</g>
<!-- display&#45;&gt;./command -->
<g id="edge1" class="edge"><title>display&#45;&gt;./command</title>
<path fill="none" stroke="black" d="M70.762,-50.9922C88.827,-54.2365 111.615,-58.3291 132.268,-62.0383"/>
<polygon fill="black" stroke="black" points="131.744,-65.5001 142.206,-63.823 132.982,-58.6104 131.744,-65.5001"/>
</g>
<!-- ./GenerateDOTFile -->
<g id="node3" class="node"><title>./GenerateDOTFile</title>
<ellipse fill="none" stroke="black" cx="188.736" cy="-18" rx="79.8859" ry="18"/>
<text text-anchor="middle" x="188.736" y="-14.3" font-family="Times New Roman,serif" font-size="14.00">./GenerateDOTFile</text>
</g>
<!-- display&#45;&gt;./GenerateDOTFile -->
<g id="edge2" class="edge"><title>display&#45;&gt;./GenerateDOTFile</title>
<path fill="none" stroke="black" d="M70.762,-39.0078C84.032,-36.6246 99.8505,-33.7837 115.499,-30.9733"/>
<polygon fill="black" stroke="black" points="116.506,-34.3486 125.73,-29.136 115.269,-27.4588 116.506,-34.3486"/>
</g>
<!-- ./ParseAMDFile -->
<g id="node4" class="node"><title>./ParseAMDFile</title>
<ellipse fill="none" stroke="black" cx="374.223" cy="-99" rx="69.5877" ry="18"/>
<text text-anchor="middle" x="374.223" y="-95.3" font-family="Times New Roman,serif" font-size="14.00">./ParseAMDFile</text>
</g>
<!-- ./command&#45;&gt;./ParseAMDFile -->
<g id="edge3" class="edge"><title>./command&#45;&gt;./ParseAMDFile</title>
<path fill="none" stroke="black" d="M236.989,-78.9532C257.155,-81.9205 281.104,-85.4447 303.256,-88.7044"/>
<polygon fill="black" stroke="black" points="302.885,-92.1873 313.288,-90.1805 303.904,-85.2619 302.885,-92.1873"/>
</g>
<!-- ./Visitor -->
<g id="node5" class="node"><title>./Visitor</title>
<ellipse fill="none" stroke="black" cx="374.223" cy="-45" rx="40.0939" ry="18"/>
<text text-anchor="middle" x="374.223" y="-41.3" font-family="Times New Roman,serif" font-size="14.00">./Visitor</text>
</g>
<!-- ./command&#45;&gt;./Visitor -->
<g id="edge4" class="edge"><title>./command&#45;&gt;./Visitor</title>
<path fill="none" stroke="black" d="M236.989,-65.0468C264.2,-61.0428 298.3,-56.0249 325.577,-52.0111"/>
<polygon fill="black" stroke="black" points="326.284,-55.4448 335.668,-50.5262 325.265,-48.5194 326.284,-55.4448"/>
</g>
<!-- fs -->
<g id="node6" class="node"><title>fs</title>
<ellipse fill="none" stroke="black" cx="581.808" cy="-153" rx="27" ry="18"/>
<text text-anchor="middle" x="581.808" y="-149.3" font-family="Times New Roman,serif" font-size="14.00">fs</text>
</g>
<!-- ./ParseAMDFile&#45;&gt;fs -->
<g id="edge5" class="edge"><title>./ParseAMDFile&#45;&gt;fs</title>
<path fill="none" stroke="black" d="M423.684,-111.729C461.445,-121.647 512.933,-135.172 546.517,-143.993"/>
<polygon fill="black" stroke="black" points="545.768,-147.415 556.33,-146.57 547.547,-140.645 545.768,-147.415"/>
</g>
<!-- path -->
<g id="node7" class="node"><title>path</title>
<ellipse fill="none" stroke="black" cx="581.808" cy="-99" rx="27" ry="18"/>
<text text-anchor="middle" x="581.808" y="-95.3" font-family="Times New Roman,serif" font-size="14.00">path</text>
</g>
<!-- ./ParseAMDFile&#45;&gt;path -->
<g id="edge6" class="edge"><title>./ParseAMDFile&#45;&gt;path</title>
<path fill="none" stroke="black" d="M443.966,-99C477.605,-99 516.729,-99 544.506,-99"/>
<polygon fill="black" stroke="black" points="544.561,-102.5 554.561,-99 544.561,-95.5001 544.561,-102.5"/>
</g>
<!-- ./traverseWithDepthLimit -->
<g id="node8" class="node"><title>./traverseWithDepthLimit</title>
<ellipse fill="none" stroke="black" cx="581.808" cy="-45" rx="102.082" ry="18"/>
<text text-anchor="middle" x="581.808" y="-41.3" font-family="Times New Roman,serif" font-size="14.00">./traverseWithDepthLimit</text>
</g>
<!-- ./Visitor&#45;&gt;./traverseWithDepthLimit -->
<g id="edge7" class="edge"><title>./Visitor&#45;&gt;./traverseWithDepthLimit</title>
<path fill="none" stroke="black" d="M414.862,-45C430.66,-45 449.708,-45 469.182,-45"/>
<polygon fill="black" stroke="black" points="469.39,-48.5001 479.39,-45 469.389,-41.5001 469.39,-48.5001"/>
</g>
</g>
</svg>
